<svg xmlns="http://www.w3.org/2000/svg" viewBox="0 0 140.0 176.3" width="420" height="529"><g transform="translate(10.00,8)"><path d="M85.86 26.9 A42 42 0 1 0 85.86 93.1" fill="none" stroke="#143C3A" stroke-width="22" stroke-linecap="round"/><path d="M41 61 L54 76 L86 37" fill="none" stroke="#37C48E" stroke-width="16" stroke-linecap="round" stroke-linejoin="round"/></g><g transform="translate(8.00,144) scale(0.3060)"><g transform="translate(-3.50,0)"><path d="M3.50 43.41Q3.50 33.11 8.14 24.97Q12.80 16.81 20.84 12.27Q28.91 7.70 38.91 7.70Q50.59 7.70 59.39 13.70Q68.20 19.70 71.70 30.31L55.59 30.31Q53.20 25.31 48.84 22.81Q44.50 20.31 38.80 20.31Q32.70 20.31 27.95 23.16Q23.20 26.00 20.55 31.20Q17.91 36.41 17.91 43.41Q17.91 50.31 20.55 55.56Q23.20 60.81 27.95 63.66Q32.70 66.50 38.80 66.50Q44.50 66.50 48.84 63.95Q53.20 61.41 55.59 56.41L71.70 56.41Q68.20 67.11 59.45 73.06Q50.70 79.00 38.91 79.00Q28.91 79.00 20.84 74.45Q12.80 69.91 8.14 61.81Q3.50 53.70 3.50 43.41ZM97.71 4.41L97.71 78.41L83.71 78.41L83.71 4.41L97.71 4.41ZM163.01 49.50Q163.01 52.50 162.60 54.91L122.10 54.91Q122.60 60.91 126.30 64.31Q130.01 67.70 135.40 67.70Q143.19 67.70 146.51 61.00L161.60 61.00Q159.19 69.00 152.40 74.16Q145.60 79.31 135.69 79.31Q127.69 79.31 121.35 75.77Q115.01 72.20 111.44 65.70Q107.90 59.20 107.90 50.70Q107.90 42.11 111.40 35.61Q114.90 29.11 121.19 25.61Q127.51 22.11 135.69 22.11Q143.60 22.11 149.85 25.52Q156.10 28.91 159.55 35.16Q163.01 41.41 163.01 49.50ZM148.51 45.50Q148.40 40.11 144.60 36.86Q140.80 33.61 135.30 33.61Q130.10 33.61 126.55 36.77Q123.01 39.91 122.19 45.50L148.51 45.50ZM169.60 50.50Q169.60 42.11 172.94 35.61Q176.30 29.11 182.05 25.61Q187.80 22.11 194.89 22.11Q201.10 22.11 205.74 24.61Q210.39 27.11 213.21 30.91L213.21 23.00L227.30 23.00L227.30 78.41L213.21 78.41L213.21 70.31Q210.50 74.20 205.75 76.77Q201.00 79.31 194.80 79.31Q187.80 79.31 182.05 75.72Q176.30 72.11 172.94 65.56Q169.60 59.00 169.60 50.50ZM213.21 50.70Q213.21 45.61 211.21 41.97Q209.21 38.31 205.80 36.36Q202.39 34.41 198.50 34.41Q194.60 34.41 191.30 36.31Q188.00 38.20 185.94 41.86Q183.89 45.50 183.89 50.50Q183.89 55.50 185.94 59.25Q188.00 63.00 191.35 65.00Q194.71 67.00 198.50 67.00Q202.39 67.00 205.80 65.06Q209.21 63.11 211.21 59.47Q213.21 55.81 213.21 50.70ZM255.01 31.61Q257.69 27.20 262.04 24.70Q266.40 22.20 272.01 22.20L272.01 36.91L268.30 36.91Q261.69 36.91 258.35 40.02Q255.01 43.11 255.01 50.81L255.01 78.41L241.01 78.41L241.01 23.00L255.01 23.00L255.01 31.61Z" fill="#143C3A"/><path d="M328.91 8.61L328.91 19.91L310.30 19.91L310.30 78.41L296.30 78.41L296.30 19.91L277.70 19.91L277.70 8.61L328.91 8.61ZM346.20 16.41Q342.50 16.41 340.04 14.06Q337.61 11.70 337.61 8.20Q337.61 4.70 340.04 2.36Q342.50 0.00 346.20 0.00Q349.90 0.00 352.34 2.36Q354.79 4.70 354.79 8.20Q354.79 11.70 352.34 14.06Q349.90 16.41 346.20 16.41ZM353.11 23.00L353.11 78.41L339.11 78.41L339.11 23.00L353.11 23.00ZM380.91 4.41L380.91 78.41L366.91 78.41L366.91 4.41L380.91 4.41ZM408.71 4.41L408.71 78.41L394.71 78.41L394.71 4.41L408.71 4.41Z" fill="#37C48E"/></g></g></svg>